<svg width="470" height="94" xmlns="http://www.w3.org/2000/svg" class="bi bi-heart-pulse-fill" fill="#AAA7FF">
 <g id="Layer_1">
  <title>Layer 1</title>
  <g stroke="null">
   <path stroke="null" d="m18.03616,55.5271c6.74038,10.10782 18.15013,21.26488 35.84431,32.96029c17.69418,-11.69541 29.10393,-22.85246 35.84431,-32.96029l-13.87079,0a2.74669,2.74669 0 0 1 -2.54893,-1.72492l-8.00386,-20.00689l-8.77842,30.72448a2.74669,2.74669 0 0 1 -5.19124,0.26918l-9.0476,-22.62174l-8.09175,12.14037a2.74669,2.74669 0 0 1 -2.28525,1.21953l-13.87079,0z"/>
   <path stroke="null" d="m14.7676,50.03372c-18.16661,-34.71817 19.39163,-54.93381 38.14054,-37.66811c0.3296,0.30214 0.65371,0.61526 0.96684,0.93937a17.13935,17.13935 0 0 1 0.96684,-0.93387c18.7599,-17.27119 56.31265,2.94445 38.15153,37.66262l-15.28808,0l-10.2946,-25.74198a2.74669,2.74669 0 0 0 -5.19124,0.26918l-8.77293,30.72448l-8.00386,-20.00689a2.74669,2.74669 0 0 0 -4.83418,-0.4999l-10.17374,15.25512l-15.66712,0z"/>
   <line stroke="null" id="svg_22" y2="100.78652" x2="361.3077" y1="101.36813" x1="361.3077" fill="none"/>
  </g>
  <text transform="matrix(1 0 0 1 0 0)" stroke="null" xml:space="preserve" text-anchor="start" font-family="Noto Sans JP" font-size="24" stroke-width="0" fill="white" id="svg_1" y="122.75659" x="392.17391">Medic Handbook</text>
  <path id="svg_4" d="m390.37022,101.25254l0.56913,0l0.17587,-0.54067l0.17587,0.54067l0.56913,0l-0.46044,0.33415l0.17588,0.54067l-0.46044,-0.33416l-0.46044,0.33416l0.17588,-0.54067l-0.46044,-0.33415z" stroke="null" fill="#aaa7ff"/>
  <text transform="matrix(1.20579 0 0 2.09031 -75.8736 -254.679)" stroke="null" font-style="italic" font-weight="bold" xml:space="preserve" text-anchor="start" font-family="'Open Sans'" font-size="36" stroke-width="0" id="svg_7" y="150.57501" x="155.22965" fill="#aaa7ff">Medic Handbook</text>
  <path d="m0,0.14789c0.86956,0 1.80532,-0.33276 2.6087,0c1.13614,0.4706 4.38376,0.73671 7.82609,1.73912c5.28029,1.53763 12.07412,3.14261 20,4.34782c10.35196,1.57413 20.86957,2.6087 34.78261,5.21739c13.91304,2.6087 27.06952,2.54559 45.21739,5.21739c13.15993,1.93745 28.64848,4.77945 42.6087,6.08696c13.87945,1.29994 26.08978,2.57269 37.3913,3.47826c10.4375,0.83632 20.01344,1.30687 26.95653,1.73914c6.9971,0.43562 12.97894,1.30223 17.3913,1.73914c4.32666,0.42842 7.8261,0 11.30435,0c4.34782,0 7.82608,0.86957 11.30435,0.86957c4.34782,0 8.63112,1.30222 13.04347,1.73912c5.192,0.51411 9.56522,0.86957 14.78261,0.86957c5.21739,0 11.23982,1.30223 15.65218,1.73914c4.32669,0.42842 8.72171,-0.42499 12.17392,0c3.55844,0.43806 6.08694,0.86957 7.82608,0.86957l1.73914,0l1.73914,0l0.86957,0" id="svg_11" stroke-width="0" stroke="null" fill="none"/>
  <path d="m160.86957,48.84354c0,-0.86957 0.86957,-0.86957 1.73914,-0.86957c1.73912,0 5.13721,-0.4315 8.69565,-0.86957c4.31525,-0.53123 9.56522,0 14.78261,0c6.95651,0 13.92816,-0.38329 21.73914,-0.86957c6.9971,-0.43562 15.65216,-0.86955 25.21738,-0.86955c7.8261,0 15.61606,-0.43411 23.47827,-0.86957c6.94586,-0.3847 13.91304,0 21.73912,0c6.95653,0 14.78262,0 22.6087,0c7.82608,0 16.52173,0 24.34784,0c7.82608,0 16.52664,-0.04776 25.21738,0.86957c7.83075,0.82655 14.78262,0.86955 21.73914,0.86955c6.08694,0 13.05881,-0.4315 19.13043,0c6.13327,0.43588 11.30435,0.86957 16.52173,0.86957c5.21741,0 10.43478,0 15.65219,0c4.34781,0 9.56522,0 13.91302,0c5.21741,0 8.69565,0 13.04349,0c4.34784,0 6.95651,0 10.43478,0c3.47827,0 6.95651,0 9.56522,0c3.47827,0 6.08694,0 9.56522,0c3.47827,0 6.95651,0 10.43478,0c3.47827,0 6.08694,0 8.69565,0c2.6087,0 5.21741,0 7.82608,0c1.73914,0 3.47827,0 5.21741,0c1.73914,0 3.47824,0 4.34781,0c2.6087,0 3.47827,0 6.08698,0c0.86957,0 1.73914,0 3.47824,0l0.86957,0l0.86957,0" id="svg_13" stroke-width="0" stroke="null" fill="none"/>
  <line id="svg_14" y2="56.66963" x2="548.69565" y1="62.75659" x1="229.56522" stroke="null" fill="none"/>
  <line id="svg_15" y2="98.40876" x2="174.78261" y1="65.36528" x1="277.3913" stroke="null" fill="none"/>
  <line id="svg_16" y2="91.45224" x2="253.04348" y1="78.40876" x1="222.6087" stroke="null" fill="none"/>
  <line id="svg_17" y2="52.3218" x2="520" y1="87.97398" x1="232.17391" stroke="null" fill="none"/>
  <text transform="matrix(1.19735 0 0 1.28764 -62.4941 -61.664)" stroke="null" xml:space="preserve" text-anchor="start" font-family="'Open Sans'" font-size="20" id="svg_19" y="115.27009" x="146.93082" stroke-width="0" fill="#aaa7ff">Brought to you by SCDF STN31.</text>
 </g>

</svg>