<?xml version="1.0" encoding="utf-8"?>
<svg viewBox="0 200 700 100" xmlns="http://www.w3.org/2000/svg" xmlns:bx="https://boxy-svg.com">
  <defs>
    <style bx:fonts="Roboto">@import url(https://fonts.googleapis.com/css2?family=Roboto%3Aital%2Cwght%400%2C100%3B0%2C300%3B0%2C400%3B0%2C500%3B0%2C700%3B0%2C900%3B1%2C100%3B1%2C300%3B1%2C400%3B1%2C500%3B1%2C700%3B1%2C900&amp;display=swap);</style>
  </defs>
  <g transform="matrix(6.666625022888184, 0, 0, 6.666625022888184, 53.3338050842285, 253.3343048095703)" id="457676" style="">
    <g style="" vector-effect="non-scaling-stroke">
      <g transform="matrix(1 0 0 1 0 -0.5001)">
        <path style="stroke: none; stroke-width: 1; stroke-dasharray: none; stroke-linecap: butt; stroke-dashoffset: 0; stroke-linejoin: miter; stroke-miterlimit: 4; is-custom-font: none; font-file-url: none; fill: rgb(170,167,255); fill-rule: nonzero; opacity: 1;" d="m 8 2.748 l -0.717 -0.737 C 5.6 0.281 2.514 0.878 1.4 3.053 C 0.918 3.995 0.78 5.323 1.508 7 H 0.43 c -2.128 -5.697 4.165 -8.83 7.394 -5.857 c 0.06 0.055 0.119 0.112 0.176 0.171 a 3.12 3.12 0 0 1 0.176 -0.17 c 3.23 -2.974 9.522 0.159 7.394 5.856 h -1.078 c 0.728 -1.677 0.59 -3.005 0.108 -3.947 C 13.486 0.878 10.4 0.28 8.717 2.01 z M 2.212 10 h 1.315 C 4.593 11.183 6.05 12.458 8 13.795 c 1.949 -1.337 3.407 -2.612 4.473 -3.795 h 1.315 c -1.265 1.566 -3.14 3.25 -5.788 5 c -2.648 -1.75 -4.523 -3.434 -5.788 -5 Z" stroke-linecap="round" transform=" translate(-8, -7.5)"/>
      </g>
      <g transform="matrix(1 0 0 1 0 -1)">
        <path style="stroke: none; stroke-width: 1; stroke-dasharray: none; stroke-linecap: butt; stroke-dashoffset: 0; stroke-linejoin: miter; stroke-miterlimit: 4; is-custom-font: none; font-file-url: none; fill: rgb(170,167,255); fill-rule: nonzero; opacity: 1;" transform=" translate(-8, -7)" d="M 10.464 3.314 a 0.5 0.5 0 0 0 -0.945 0.049 L 7.921 8.956 L 6.464 5.314 a 0.5 0.5 0 0 0 -0.88 -0.091 L 3.732 8 H 0.5 a 0.5 0.5 0 0 0 0 1 H 4 a 0.5 0.5 0 0 0 0.416 -0.223 l 1.473 -2.209 l 1.647 4.118 a 0.5 0.5 0 0 0 0.945 -0.049 l 1.598 -5.593 l 1.457 3.642 A 0.5 0.5 0 0 0 12 9 h 3.5 a 0.5 0.5 0 0 0 0 -1 h -3.162 z" stroke-linecap="round"/>
      </g>
    </g>
  </g>
  <g transform="matrix(0.9936630129814148, 0, 0, 1.0976070165634155, 408.13134765625, 236.83566284179688)" style="" id="483360">
    <path font-family="Roboto" font-size="77" font-style="normal" font-weight="bold" style="stroke: none; stroke-width: 1; stroke-dasharray: none; stroke-linecap: butt; stroke-dashoffset: 0; stroke-linejoin: miter; stroke-miterlimit: 4; is-custom-font: none; font-file-url: none; fill: rgb(170,167,255); fill-rule: nonzero; opacity: 1; white-space: pre;" d="M-288.09-30.55L-273.35-30.55L-259.29 9.15L-245.31-30.55L-230.49-30.55L-230.49 24.19L-241.81 24.19L-241.81 9.22L-240.68-16.60L-255.46 24.19L-263.20 24.19L-277.94-16.57L-276.81 9.22L-276.81 24.19L-288.09 24.19L-288.09-30.55ZM-202.63 24.94L-202.63 24.94Q-211.58 24.94-217.20 19.45Q-222.82 13.96-222.82 4.83L-222.82 4.83L-222.82 3.77Q-222.82-2.36-220.45-7.19Q-218.09-12.02-213.74-14.63Q-209.40-17.24-203.84-17.24L-203.84-17.24Q-195.49-17.24-190.70-11.98Q-185.90-6.72-185.90 2.95L-185.90 2.95L-185.90 7.38L-211.81 7.38Q-211.28 11.37-208.63 13.77Q-205.98 16.18-201.92 16.18L-201.92 16.18Q-195.64 16.18-192.11 11.63L-192.11 11.63L-186.77 17.61Q-189.21 21.07-193.38 23.00Q-197.56 24.94-202.63 24.94ZM-203.87-8.45L-203.87-8.45Q-207.11-8.45-209.12-6.27Q-211.13-4.08-211.69-0.02L-211.69-0.02L-196.58-0.02L-196.58-0.89Q-196.65-4.50-198.53-6.47Q-200.41-8.45-203.87-8.45ZM-181.43 3.55L-181.43 3.55Q-181.43-5.96-177.16-11.60Q-172.89-17.24-165.49-17.24L-165.49-17.24Q-159.55-17.24-155.67-12.81L-155.67-12.81L-155.67-33.56L-144.77-33.56L-144.77 24.19L-154.58 24.19L-155.11 19.87Q-159.17 24.94-165.56 24.94L-165.56 24.94Q-172.74 24.94-177.08 19.28Q-181.43 13.62-181.43 3.55ZM-170.56 4.34L-170.56 4.34Q-170.56 10.05-168.57 13.10Q-166.58 16.14-162.78 16.14L-162.78 16.14Q-157.74 16.14-155.67 11.89L-155.67 11.89L-155.67-4.16Q-157.70-8.41-162.70-8.41L-162.70-8.41Q-170.56-8.41-170.56 4.34ZM-124.88-16.49L-124.88 24.19L-135.78 24.19L-135.78-16.49L-124.88-16.49ZM-136.42-27.02L-136.42-27.02Q-136.42-29.46-134.79-31.04Q-133.15-32.62-130.33-32.62L-130.33-32.62Q-127.55-32.62-125.90-31.04Q-124.24-29.46-124.24-27.02L-124.24-27.02Q-124.24-24.54-125.91-22.96Q-127.59-21.38-130.33-21.38Q-133.08-21.38-134.75-22.96Q-136.42-24.54-136.42-27.02ZM-99.01 16.18L-99.01 16.18Q-96.01 16.18-94.13 14.53Q-92.25 12.87-92.17 10.13L-92.17 10.13L-81.98 10.13Q-82.02 14.26-84.24 17.70Q-86.46 21.14-90.31 23.04Q-94.16 24.94-98.83 24.94L-98.83 24.94Q-107.55 24.94-112.59 19.40Q-117.62 13.85-117.62 4.07L-117.62 4.07L-117.62 3.36Q-117.62-6.04-112.62-11.64Q-107.62-17.24-98.90-17.24L-98.90-17.24Q-91.27-17.24-86.66-12.90Q-82.06-8.56-81.98-1.34L-81.98-1.34L-92.17-1.34Q-92.25-4.50-94.13-6.47Q-96.01-8.45-99.09-8.45L-99.09-8.45Q-102.89-8.45-104.82-5.68Q-106.76-2.92-106.76 3.28L-106.76 3.28L-106.76 4.41Q-106.76 10.69-104.84 13.44Q-102.92 16.18-99.01 16.18ZM-11.34-30.55L-11.34 24.19L-22.61 24.19L-22.61 0.73L-44.61 0.73L-44.61 24.19L-55.89 24.19L-55.89-30.55L-44.61-30.55L-44.61-8.37L-22.61-8.37L-22.61-30.55L-11.34-30.55ZM32.35 24.19L21.37 24.19Q20.62 22.72 20.28 20.54L20.28 20.54Q16.34 24.94 10.02 24.94L10.02 24.94Q4.04 24.94 0.11 21.48Q-3.82 18.02-3.82 12.76L-3.82 12.76Q-3.82 6.29 0.98 2.83Q5.77-0.63 14.83-0.66L14.83-0.66L19.83-0.66L19.83-2.99Q19.83-5.81 18.39-7.51Q16.94-9.20 13.82-9.20L13.82-9.20Q11.07-9.20 9.51-7.88Q7.95-6.57 7.95-4.27L7.95-4.27L-2.91-4.27Q-2.91-7.81-0.73-10.81Q1.45-13.82 5.43-15.53Q9.42-17.24 14.38-17.24L14.38-17.24Q21.90-17.24 26.32-13.47Q30.74-9.69 30.74-2.84L30.74-2.84L30.74 14.79Q30.77 20.58 32.35 23.55L32.35 23.55L32.35 24.19ZM12.39 16.63L12.39 16.63Q14.79 16.63 16.82 15.56Q18.86 14.49 19.83 12.68L19.83 12.68L19.83 5.69L15.77 5.69Q7.61 5.69 7.09 11.33L7.09 11.33L7.05 11.97Q7.05 14.00 8.48 15.32Q9.91 16.63 12.39 16.63ZM38.86-16.49L49.08-16.49L49.42-11.79Q53.78-17.24 61.12-17.24L61.12-17.24Q67.58-17.24 70.74-13.45Q73.90-9.65 73.97-2.09L73.97-2.09L73.97 24.19L63.11 24.19L63.11-1.83Q63.11-5.29 61.60-6.85Q60.10-8.41 56.60-8.41L56.60-8.41Q52.02-8.41 49.72-4.50L49.72-4.50L49.72 24.19L38.86 24.19L38.86-16.49ZM80.52 3.55L80.52 3.55Q80.52-5.96 84.78-11.60Q89.05-17.24 96.46-17.24L96.46-17.24Q102.40-17.24 106.27-12.81L106.27-12.81L106.27-33.56L117.17-33.56L117.17 24.19L107.36 24.19L106.83 19.87Q102.77 24.94 96.38 24.94L96.38 24.94Q89.20 24.94 84.86 19.28Q80.52 13.62 80.52 3.55ZM91.38 4.34L91.38 4.34Q91.38 10.05 93.37 13.10Q95.37 16.14 99.16 16.14L99.16 16.14Q104.20 16.14 106.27 11.89L106.27 11.89L106.27-4.16Q104.24-8.41 99.24-8.41L99.24-8.41Q91.38-8.41 91.38 4.34ZM162.25 3.62L162.25 4.22Q162.25 14.00 158.08 19.47Q153.91 24.94 146.42 24.94L146.42 24.94Q139.81 24.94 135.86 19.87L135.86 19.87L135.37 24.19L125.60 24.19L125.60-33.56L136.46-33.56L136.46-12.84Q140.22-17.24 146.35-17.24L146.35-17.24Q153.79-17.24 158.02-11.77Q162.25-6.30 162.25 3.62L162.25 3.62ZM151.39 3.43L151.39 3.43Q151.39-2.73 149.43-5.57Q147.48-8.41 143.60-8.41L143.60-8.41Q138.42-8.41 136.46-4.16L136.46-4.16L136.46 11.89Q138.45 16.18 143.68 16.18L143.68 16.18Q148.94 16.18 150.60 10.99L150.60 10.99Q151.39 8.51 151.39 3.43ZM167.25 3.96L167.25 3.47Q167.25-2.58 169.58-7.32Q171.92-12.06 176.30-14.65Q180.68-17.24 186.47-17.24L186.47-17.24Q194.70-17.24 199.91-12.21Q205.11-7.17 205.72 1.48L205.72 1.48L205.79 4.26Q205.79 13.62 200.56 19.28Q195.34 24.94 186.54 24.94Q177.74 24.94 172.50 19.30Q167.25 13.66 167.25 3.96L167.25 3.96ZM178.12 4.26L178.12 4.26Q178.12 10.05 180.30 13.12Q182.48 16.18 186.54 16.18L186.54 16.18Q190.49 16.18 192.71 13.15Q194.93 10.13 194.93 3.47L194.93 3.47Q194.93-2.20 192.71-5.33Q190.49-8.45 186.47-8.45L186.47-8.45Q182.48-8.45 180.30-5.34Q178.12-2.24 178.12 4.26ZM210.79 3.96L210.79 3.47Q210.79-2.58 213.12-7.32Q215.45-12.06 219.83-14.65Q224.21-17.24 230.00-17.24L230.00-17.24Q238.24-17.24 243.44-12.21Q248.65-7.17 249.25 1.48L249.25 1.48L249.33 4.26Q249.33 13.62 244.10 19.28Q238.88 24.94 230.08 24.94Q221.28 24.94 216.04 19.30Q210.79 13.66 210.79 3.96L210.79 3.96ZM221.66 4.26L221.66 4.26Q221.66 10.05 223.84 13.12Q226.02 16.18 230.08 16.18L230.08 16.18Q234.03 16.18 236.24 13.15Q238.46 10.13 238.46 3.47L238.46 3.47Q238.46-2.20 236.24-5.33Q234.03-8.45 230.00-8.45L230.00-8.45Q226.02-8.45 223.84-5.34Q221.66-2.24 221.66 4.26ZM281.25 24.19L270.80 7.87L266.89 11.78L266.89 24.19L256.02 24.19L256.02-33.56L266.89-33.56L266.89-1.57L268.99-4.27L279.41-16.49L292.45-16.49L277.75 0.46L293.73 24.19L281.25 24.19Z"/>
  </g>
  <text style="fill: rgb(170, 167, 255); font-family: Roboto; font-size: 26.8px; white-space: pre;" x="120.346" y="293.309" transform="matrix(0.9329820275306702, 0, 0, 1.0042890310287476, 8.065313339233398, -1.1484889984130824)">Brought To You By SCDF STN31 EMS Training Team.</text>
</svg>